<?xml version="1.0" encoding="UTF-8"?>
<!-- Generator: Adobe Illustrator 16.0.4, SVG Export Plug-In . SVG Version: 6.00 Build 0)  -->
<!DOCTYPE svg PUBLIC "-//W3C//DTD SVG 1.1//EN" "http://www.w3.org/Graphics/SVG/1.1/DTD/svg11.dtd">
<svg version="1.1" id="Ebene_1" xmlns="http://www.w3.org/2000/svg" xmlns:xlink="http://www.w3.org/1999/xlink" x="0px" y="0px" width="699.331px" height="102.155px" viewBox="0 0 699.331 102.155" enable-background="new 0 0 699.331 102.155" xml:space="preserve">
<g>
	<g>
		<rect x="375.832" y="76.183" fill="#D9DADA" width="81.287" height="25.972"/>
		<rect x="462.041" y="76.183" fill="#6F6F6E" width="81.291" height="25.972"/>
		<rect x="548.252" y="76.183" fill="#E3000F" width="81.288" height="25.972"/>
	</g>
	<g>
		<path d="M123.844,26.351H90.259c-2.762-0.007-5.007-2.248-5.007-5.013v-8.498c0-2.771,2.245-5.013,5.01-5.013h42.478l0,0    c2.162,0,3.911-1.749,3.911-3.914c0-2.16-1.749-3.915-3.911-3.915H82.434c-7.09,0.006-12.838,5.751-12.838,12.841l0,0v8.498l0,0    c0,7.09,5.748,12.834,12.838,12.841h33.583c2.768,0,5.009,2.241,5.009,5.006v8.505c0,2.764-2.241,5.006-5.003,5.006H73.506    c-2.159,0-3.914,1.755-3.914,3.92c0,2.159,1.755,3.908,3.914,3.908l50.846-0.02c6.853-0.271,12.33-5.896,12.33-12.822v-8.497    C136.682,32.096,130.937,26.351,123.844,26.351z"/>
		<path d="M207.644,0h-60.835c-2.16,0-3.915,1.755-3.915,3.915c0,2.165,1.755,3.914,3.915,3.914h23.229v48.788    c0,2.159,1.751,3.908,3.914,3.908h7.828c2.162,0,3.915-1.749,3.915-3.908V7.828h21.95c2.163,0,3.914-1.749,3.914-3.914    C211.558,1.755,209.807,0,207.644,0z"/>
		<path d="M48.785,26.351H30.262V7.828c0-2.159-1.752-3.914-3.914-3.914c-2.16,0-3.915,1.754-3.915,3.914v18.523H3.915    C1.752,26.351,0,28.106,0,30.265s1.752,3.914,3.915,3.914h18.519v18.517c0,2.165,1.755,3.92,3.915,3.92    c2.162,0,3.914-1.755,3.914-3.92V34.179h18.523c2.159,0,3.914-1.755,3.914-3.914S50.943,26.351,48.785,26.351z"/>
		<path d="M695.417,26.351H650.55c-2.163,0-3.914,1.755-3.914,3.914s1.751,3.914,3.914,3.914h44.867    c2.165,0,3.913-1.755,3.913-3.914S697.583,26.351,695.417,26.351z"/>
		<path d="M287.05,21.338v-8.498C287.05,5.745,281.303,0,274.209,0h-52.532c-2.162,0-3.913,1.755-3.913,3.915v52.701    c0,2.159,1.751,3.908,3.917,3.908h7.825c2.162,0,3.914-1.749,3.914-3.908V34.179h15.546c12.386,0.007,22.424,10.044,22.424,22.437    c0,2.159,1.755,3.908,3.917,3.908h7.825c2.166,0,3.917-1.749,3.917-3.908c0-9.04-3.97-17.152-10.255-22.695    C282.648,32.721,287.05,27.543,287.05,21.338z M233.421,26.351V7.828h32.964c2.766,0,5.006,2.241,5.006,5.006v8.504    c0,2.765-2.241,5.013-5.009,5.013H233.421z"/>
		<path d="M353.228,0H309.62c-7.092,0-12.841,5.745-12.841,12.841v34.841c0,7.096,5.749,12.842,12.841,12.842h43.608    c7.089,0,12.841-5.746,12.841-12.842V12.841C366.069,5.745,360.317,0,353.228,0z M312.438,47.682V12.841    c0-2.771,2.242-5.013,5.008-5.013h27.953c2.766,0,5.008,2.241,5.008,5.013v34.841c0,2.771-2.242,5.014-5.008,5.014h-27.953    C314.68,52.696,312.438,50.454,312.438,47.682z"/>
		<path d="M616.698,0h-52.529c-2.159,0-3.915,1.755-3.915,3.915v52.701c0,2.159,1.756,3.908,3.915,3.908l0,0l0,0h7.827    c2.162,0,3.914-1.749,3.914-3.908V34.179h15.549c12.388,0.007,22.424,10.044,22.424,22.437c0,2.159,1.756,3.908,3.915,3.908h7.828    l0,0c2.162,0,3.915-1.749,3.915-3.908c0-9.04-3.969-17.152-10.253-22.695c5.852-1.199,10.253-6.377,10.253-12.582v-8.498    C629.541,5.745,623.792,0,616.698,0z M582.078,26.351h-6.168V7.828h6.168h12.191h14.602c2.769,0,5.009,2.241,5.012,5.006v8.504    c0,2.765-2.243,5.013-5.012,5.013h-14.602H582.078z"/>
		<path d="M501.874,7.828h44.681c2.159,0,3.913-1.749,3.913-3.914c0-2.16-1.754-3.915-3.913-3.915h-52.513    c-7.094,0-12.841,5.745-12.841,12.841v34.841c0,7.096,5.747,12.842,12.841,12.842h52.513c2.159,0,3.913-1.749,3.913-3.914    c0-2.159-1.754-3.914-3.913-3.914h-44.684c-2.769,0-5.008-2.242-5.008-5.014V34.179h49.691c2.159,0,3.913-1.755,3.913-3.914    s-1.754-3.921-3.913-3.921h-49.691V12.841C496.863,10.069,499.105,7.828,501.874,7.828z"/>
		<path d="M458.603,0h-78.859c-2.159,0-3.912,1.755-3.912,3.915v52.701c0,2.159,1.753,3.908,3.912,3.908h7.83    c2.163,0,3.914-1.749,3.914-3.908V7.828h11.459h7.85c2.766,0,5.01,2.241,5.01,5.013v43.775c0,2.159,1.752,3.908,3.914,3.908h7.832    c2.158,0,3.914-1.749,3.914-3.908V7.828h19.305c2.766,0,5.014,2.241,5.014,5.013v43.775c0,2.159,1.748,3.908,3.914,3.908h7.827    c2.163,0,3.915-1.749,3.915-3.908V12.841C471.441,5.745,465.692,0,458.603,0z"/>
	</g>
</g>
</svg>