<svg xmlns="http://www.w3.org/2000/svg" width="755.2" height="180" viewBox="0 0 755.2 180"><g><path d="M680.6 135.1c0 .9-.7 1.6-1.6 1.6-.3 0-.5-.1-.7-.2-2.4-.7-21.1-9.5-20.8-35.2.3-26.8 20.3-56.1 58.3-57.9 14.5-.7 39.6 7.7 39.4 33.9-.1 12.9-5.6 26-14.7 34.2-9.4 8.3-20.8 11.5-26.6 11.4-8-.1-16.5-3.6-16.5-13.2s8.2-17.5 27.3-17.1c16.3.4 20.9-4.9 22.1-6.6.3-.4.3-.7-.2-.7-2.4.1-10.3.3-15.5-1.4-6.2-2-11.3-4.1-21.4-4.1-4.8 0-17.7 1-26.1 7.2-9 6.6-13.3 17-13.4 24.5-.4 13.3 7.7 20.1 9.8 22.5l.3.3c.2.2.3.4.3.8zm43.5-60.6c-.9-1-3.5-2.9-9.3-3.7-8.5-1-13.4.8-20.2-1.9-5.4-2.2-6.5-7.6-6.6-9.7 0-.4.1-.6.6-.1 1.2 1.3 4.1 3.5 9.6 3.4 7.5-.2 9.7-2.3 16.3-2.4 8-.2 11.5 4.5 11.5 7.6.2 2.7-.6 5.5-1 6.8-.3.4-.5.5-.9 0zm-125 3.8c-8.4-1.3-16.3-1.6-28.5-1.6-21.9 0-38.9 3.4-42.6 12.4-6.1 14.7 32.5 15.5 30.1 21.4-.8 2-3.7 3.8-13.9 3.8-8.7 0-14.3-.7-19.2-2-1.1-.3-1.5-.1-2.3.7-2.3 2.5-3.8 4.2-6.2 6.7-.8.8-1.1 1.4.1 1.9 7.3 2.9 19.2 3.4 34.7 3.4 26.7 0 37.7-5.2 40.9-12.8 6.8-16.3-32.7-14.9-29.7-22.3.9-2.1 7.2-2.6 13.7-2.6 7.5 0 11.1.3 16.7 1.1 1.2.2 1.5.2 2.2-.8 1.7-2.8 3.1-4.9 4.8-7.7.1-.5.4-1.5-.8-1.6zm-77.9-.8h-26.9c-.6 0-1.5.5-1.8 1-3.6 8.4-6.6 17-9.9 25.4-2.8 7.1-4.2 8.4-10.5 8.4-6.2 0-7.6-1.6-6.1-5.7 3.5-9.4 7.5-18.6 10.6-28.1.1-.4-.5-1-.9-1h-26.6c-.8 0-1.9.1-2.2.9-3.9 9.8-7.8 19.6-11.7 29.3-3 7.5.6 16.8 30.3 16.8 33.5 0 42.9-7.2 46.5-17.4 3.3-9.5 7.1-19 10-28.6.3-.4-.1-1-.8-1zm-271.4 46.2h23.5c1.1 0 1.7-.4 2.3-.8 2.5-2.2 5-4.4 7.6-6.6.6-.4 1.1-.7 1.8-.7h30.6c.6.1 1.2.6 1.4 1.1.9 2 1.7 4 2.6 6 .3.4.8.8 1.6.9h26.9c.7 0 1.1-.7.8-1.6l-16.1-43.6c-.2-.5-.9-1.1-1.4-1.1h-31.6c-1.3 0-2.3.4-3.3 1.3-15.9 14.6-31.4 28.8-47.3 43.4-.4.7-.2 1.7.6 1.7zm118.2 0h33c1.3 0 1.7-.1 2.5-1.2 11.4-14.7 22.6-29.1 34-43.8.8-1-.2-1.3-.8-1.3h-21.6c-.7 0-1.5-.2-2.3.9-7.1 9-14.1 18-21.2 27-.6.7-.7.9-1.7.9-.9 0-1.1-.3-1.4-1-3.6-9-7.1-17.7-10.7-26.6-.4-1.1-1.2-1.2-1.9-1.2h-25.2c-.5 0-1.6.1-1.1 1.6 5.4 14.7 10.6 29 16 43.7.2 1.1.9 1 2.4 1zm-162.2 0h26c1.2 0 1.5-.3 2-1.4 4.3-10.6 8.1-20.2 12.4-30.8.5-1.1.9-1.2 2.1-1.2h21.4c1.4 0 1.6-.5 1.9-1.1 1.5-3.6 2.8-6.8 4.2-10.5.4-1-.2-1.3-.9-1.3h-78c-1.3 0-1.8 0-2.3 1.2-1.5 3.6-2.7 6.6-4.2 10.2-.5 1.4.1 1.5 1.6 1.5h23.6c1.4 0 1.5.3 1 1.6-4.2 10.4-7.8 19.3-12 29.7-.6 1.6-.5 2.1 1.2 2.1zm-112.9 0h23.5c1.1 0 1.7-.4 2.3-.8 2.5-2.2 5-4.4 7.6-6.6.6-.4 1.1-.7 1.8-.7h30.6c.6.1 1.2.6 1.4 1.1.9 2 1.7 4 2.6 6 .3.4.8.8 1.6.9h26.9c.7 0 1.1-.7.8-1.6l-16.1-43.6c-.2-.5-.9-1.1-1.4-1.1h-31.6c-1.3 0-2.3.4-3.3 1.3-15.9 14.6-31.4 28.8-47.3 43.4-.4.7-.1 1.7.6 1.7zm-91.4 0H49c26.6 0 37.3-3.5 40.5-9.1 3.1-5.3 5.5-12.8-4.7-16.8-.2-.1-.1-.5 0-.5 4.4-.6 7.2-1.4 9.3-6.2 3.3-7.6-.7-13.6-21.4-13.6H19.8c-1.4 0-1.7.5-2.2 1.8-6 14.8-11.4 28.2-17.4 43-.5 1.3 0 1.4 1.3 1.4zM43.7 88h8.8c6.3 0 13.4-.6 11.9 3.1-1.6 3.9-6.5 3.8-13.2 3.8h-9.9c-1.1 0-1.4-.1-1-1.2.7-1.8 1.1-2.8 1.8-4.6.5-.9.6-1.1 1.6-1.1zm-6.2 17h14.6c7.4 0 9.6 1 8 5.1-1.5 3.7-10.6 2.9-17 2.9h-8.5c-1.3 0-1.6-.2-1.1-1.4.8-2 1.3-3.1 2.1-5.1.6-1 .6-1.5 1.9-1.5zm112.9-10.8c1.2 0 1.7.6 2 1.5 1.1 2.8 2.3 5.6 3.4 8.4.3.8.2 1.3-.4 1.4h-17.2c-.5 0-.5-.6-.2-1l5-4.9 4.8-4.6c.7-.5 1.3-.8 2.6-.8zm156.9 0c1.2 0 1.7.6 2 1.5 1.1 2.8 2.3 5.6 3.4 8.4.3.8.2 1.3-.4 1.4h-17.2c-.5 0-.5-.6-.2-1l5-4.9 4.8-4.6c.7-.5 1.3-.8 2.6-.8z" fill-rule="evenodd" clip-rule="evenodd"/></g></svg>