<?xml version="1.0" encoding="UTF-8" standalone="no"?>
<svg
   xmlns:dc="http://purl.org/dc/elements/1.1/"
   xmlns:cc="http://creativecommons.org/ns#"
   xmlns:rdf="http://www.w3.org/1999/02/22-rdf-syntax-ns#"
   xmlns:svg="http://www.w3.org/2000/svg"
   xmlns="http://www.w3.org/2000/svg"
   viewBox="0 0 1898.7467 289.89334"
   height="289.89334"
   width="1898.7467"
   xml:space="preserve"
   id="svg2"
   version="1.1"><metadata
     id="metadata8"><rdf:RDF><cc:Work
         rdf:about=""><dc:format>image/svg+xml</dc:format><dc:type
           rdf:resource="http://purl.org/dc/dcmitype/StillImage" /></cc:Work></rdf:RDF></metadata><defs
     id="defs6" /><g
     transform="matrix(1.3333333,0,0,-1.3333333,0,289.89333)"
     id="g10"><g
       transform="scale(0.1)"
       id="g12"><path
         id="path14"
         style="fill:#100f0d;fill-opacity:1;fill-rule:nonzero;stroke:none"
         d="M 1419.48,1537.4 C 765.43,1537.4 0,1163.33 0,592.25 0,215.359 419.836,-18.8008 951.098,1.17969 1399.5,18.3398 1787.94,141.141 2110.67,420.961 l -134.24,139.91 c 0,0 -317.03,-191.32 -674.03,-191.32 -314.209,0 -436.994,148.48 -436.994,314.07 0,262.719 274.184,505.439 528.384,505.439 99.93,0 165.63,-51.4 165.63,-142.78 0,-31.43 -5.7,-65.69 -28.56,-131.331 L 1493.72,815 h 725.46 c 0,0 65.71,114.18 65.71,239.86 0,334.05 -388.44,482.54 -865.41,482.54" /><path
         id="path16"
         style="fill:#100f0d;fill-opacity:1;fill-rule:nonzero;stroke:none"
         d="m 11284.5,2174.15 h -1145.3 l -197.06,-531.08 h 436.96 l 905.4,531.08" /><path
         id="path18"
         style="fill:#100f0d;fill-opacity:1;fill-rule:nonzero;stroke:none"
         d="m 6023.55,1525.98 c -206.66,0 -383.7,-104.83 -504.62,-202.5 l -43.76,162.54 h -616.9 l -437,-1427.6997 h 805.4 L 5458.01,812.16 c 48.6,162.711 125.72,282.64 219.94,282.64 48.55,0 79.99,-37.09 79.99,-94.21 0,-68.551 -65.71,-214.168 -65.71,-214.168 h 691.19 c 0,0 102.81,228.458 102.81,362.668 0,182.73 -117.09,376.89 -462.68,376.89" /><path
         id="path20"
         style="fill:#100f0d;fill-opacity:1;fill-rule:nonzero;stroke:none"
         d="m 3652.97,1209.03 c 114.25,0 168.5,-79.97 168.5,-179.87 0,-20.03 -2.87,-40.012 -5.7,-59.988 h -569.95 c 95.18,151.818 261.23,239.858 407.15,239.858 m -51.43,-839.499 c -254.2,0 -434.11,111.399 -434.11,322.699 h 1336.66 c 25.69,85.622 37.15,165.59 37.15,239.809 0,388.341 -339.9,605.341 -825.44,605.341 -651.18,0 -1419.49,-374.01 -1419.49,-945.11 C 2296.31,241.07 2656.2,18.3203 3176,1.21094 3635.81,-7.35938 4069.98,141.121 4389.83,420.941 l -134.24,139.911 c 0,0 -271.31,-191.321 -654.05,-191.321" /><path
         id="path22"
         style="fill:#100f0d;fill-opacity:1;fill-rule:nonzero;stroke:none"
         d="M 8476.95,1486 7637.23,612.25 7408.76,1486 H 6511.93 L 6894.66,58.3086 h 794 L 9062.47,1486 h -585.52" /><path
         id="path24"
         style="fill:#100f0d;fill-opacity:1;fill-rule:nonzero;stroke:none"
         d="M 11404.5,2174.15 10756.1,58.3086 h 805.5 l 648.3,2115.8414 h -805.4" /><path
         id="path26"
         style="fill:#100f0d;fill-opacity:1;fill-rule:nonzero;stroke:none"
         d="m 12932.5,352.422 c -125.7,0 -202.8,105.648 -202.8,256.949 0,257.02 231.4,576.799 462.7,576.799 125.7,0 202.8,-105.65 202.8,-254.092 0,-257.008 -231.4,-579.656 -462.7,-579.656 M 13301,1537.43 c -645.6,0 -1419.6,-374.07 -1419.6,-942.321 0,-362.621 388.5,-593.89806 942.5,-593.89806 648.4,0 1416.7,365.48806 1416.7,936.57006 0,359.789 -385.6,599.649 -939.6,599.649" /><path
         id="path28"
         style="fill:#100f0d;fill-opacity:1;fill-rule:nonzero;stroke:none"
         d="m 9973.56,1209.03 c 114.24,0 168.54,-79.97 168.54,-179.87 0,-20.03 -2.9,-40.012 -5.7,-59.988 h -570 c 95.19,151.818 261.23,239.858 407.16,239.858 m -51.43,-839.499 c -254.2,0 -434.12,111.399 -434.12,322.699 h 1336.69 c 25.7,85.622 37.1,165.59 37.1,239.809 0,388.341 -339.9,605.341 -825.4,605.341 -651.19,0 -1419.49,-374.01 -1419.49,-945.11 0,-351.2 359.87,-573.9497 879.69,-591.05906 459.8,-8.57032 894,139.91006 1213.8,419.73006 l -134.2,139.911 c 0,0 -271.3,-191.321 -654.07,-191.321" /></g></g></svg>