<?xml version="1.0" encoding="utf-8"?>
<!-- Generator: Adobe Illustrator 25.2.0, SVG Export Plug-In . SVG Version: 6.00 Build 0)  -->
<svg version="1.1" id="layer" xmlns="http://www.w3.org/2000/svg" xmlns:xlink="http://www.w3.org/1999/xlink" x="0px" y="0px"
	 viewBox="0 0 599.9 92.5" style="enable-background:new 0 0 599.9 92.5;" xml:space="preserve">
<g>
	<path d="M46.7,77c-8.9,0-16.3-2.9-22.3-8.9s-8.9-13.4-8.9-22.4s2.9-16.5,8.9-22.4c5.9-6,13.4-9,22.3-9c9.7,0,17.8,3.5,24.2,10.8
		l10.8-9.2C72.5,5.4,60.8,0.1,46.8,0.1c-13,0-24.2,4.3-33.3,13C4.5,21.8,0,32.7,0,45.8c0,13,4.6,23.9,13.5,32.7
		c9.1,8.6,20.2,12.9,33.3,12.9c13.8,0,26.4-6,35-16.1l-10.6-9.2C64.9,73.3,56.7,77,46.7,77"/>
	<path d="M583.3,78c0-1.5,1.2-2.8,2.8-2.8s2.8,1.2,2.8,2.8c0,1.5-1.2,2.8-2.8,2.8C584.6,80.7,583.3,79.5,583.3,78L583.3,78
		 M578.5,75.1l-7.2,1.9c0,0.6,0,1.3,0,1.9l7.2,1.9c0.6,0.2,0.8,0.8,0.6,1.3l-2.9,6.8c0.5,0.4,1,0.8,1.5,1.2l6-4.4
		c0.4-0.3,1-0.2,1.3,0.2c0,0,0,0.1,0.1,0.1l3.5,6.5c0.3,0,0.6-0.1,0.9-0.2s0.6-0.2,0.9-0.3l0.3-7.4c0-0.5,0.5-0.9,1-0.9h0.1l7.3,1.4
		c0.3-0.6,0.6-1.1,0.8-1.7l-5.6-4.9c-0.4-0.3-0.4-0.9-0.1-1.3l0.1-0.1l5.6-4.8c-0.2-0.6-0.5-1.2-0.8-1.7l-7.3,1.4
		c-0.5,0.1-1-0.2-1.1-0.7v-0.1l-0.3-7.4c-0.6-0.2-1.2-0.3-1.9-0.4l-3.5,6.5c-0.2,0.5-0.8,0.6-1.3,0.4c0,0-0.1,0-0.1-0.1l-6-4.4
		c-0.5,0.4-1,0.8-1.5,1.2l2.9,6.8c0.2,0.5,0,1-0.5,1.2C578.6,75,578.5,75.1,578.5,75.1"/>
	<path d="M160.1,68.3c-5.9,5.9-13.3,9-22,9s-16.2-3-22.1-9s-8.9-13.4-8.9-22.4c0-8.9,2.9-16.3,8.9-22.4c5.9-6.1,13.4-9.1,22.1-9.1
		s16.1,3,22,9.1c5.9,6.1,9,13.5,9,22.4C169.1,54.7,166,62.2,160.1,68.3 M138.1,0c-13,0-24,4.4-33,13.3c-9,8.7-13.5,19.6-13.5,32.5
		s4.6,23.8,13.5,32.5c8.9,8.7,20,13.2,33,13.2s24.2-4.4,33.1-13.2c9-8.7,13.5-19.6,13.5-32.5S180.1,22,171,13.3
		C162.1,4.5,151.1,0,138.1,0"/>
	<path d="M279.4,62.4l-19.7-60h-13.8l-19.7,60l-21.1-60h-16.5l30.3,86.8h14.2l19.6-59.7l19.5,59.7h14.4l30.3-86.8h-16.4L279.4,62.4z
		 M366.2,75.2h-18V50.5h17.9c8.2,0,14.2,5.2,14.2,12.2C380.2,69.9,374.3,75.2,366.2,75.2L366.2,75.2z M348.2,16.6h14.3
		c6.7,0,11.5,4.4,11.5,10.2c0,6.4-4.8,10.7-11.6,10.7h-14.2V16.6z M378.2,42.1c7.2-2.6,11.5-9.1,11.5-17.4c0-6.4-2.4-11.7-7.3-15.8
		c-4.8-4.2-10.7-6.4-17.8-6.4h-32.5v86.8H369c7.9,0,14.3-2.4,19.5-7.2c5.3-4.9,7.9-11.1,7.9-18.4C396.2,52.6,389.7,44.1,378.2,42.1
		L378.2,42.1z"/>
	<path d="M476.9,68.3c-5.9,5.9-13.3,9-22,9s-16.2-3-22.1-9s-8.9-13.4-8.9-22.4c0-8.9,2.9-16.3,8.9-22.4c5.9-6.1,13.4-9.1,22.1-9.1
		s16.1,3,22,9.1s9,13.5,9,22.4C485.9,54.7,482.8,62.2,476.9,68.3 M454.9,0c-13,0-24,4.4-33,13.3c-9,8.7-13.5,19.6-13.5,32.5
		s4.6,23.8,13.5,32.5c9,8.7,20,13.2,33,13.2s24.2-4.4,33.1-13.2c9-8.7,13.5-19.6,13.5-32.5s-4.6-23.8-13.7-32.5
		C478.9,4.5,467.9,0,454.9,0"/>
	<path d="M571.1,2.5l-25.8,42.8L519.4,2.5H502l34.5,56.6l-18.2,30.3H536l17.5-28.7l35.4-58.1L571.1,2.5L571.1,2.5z"/>
</g>
</svg>
